<?xml version="1.0" encoding="utf-8"?>
<!-- Generator: Adobe Illustrator 26.5.0, SVG Export Plug-In . SVG Version: 6.00 Build 0)  -->
<svg version="1.1" id="Ebene_1" xmlns="http://www.w3.org/2000/svg" xmlns:xlink="http://www.w3.org/1999/xlink" x="0px" y="0px"
	 viewBox="0 0 200 200" enable-background="new 0 0 200 200" xml:space="preserve">
<g>
	<path fill="none" d="M140.3,83.8v65.7h27.6V82.7c-4.8,2-10,3.1-15.4,3.1C148.3,85.7,144.2,85,140.3,83.8z"/>
	<path fill="none" d="M115.1,29.3H74.3v8.1h38.3C113.2,34.6,114,31.9,115.1,29.3z"/>
	<rect x="37.2" y="115.7" fill="#0A4125" width="21.9" height="51.2"/>
	<rect x="67.6" y="83.6" fill="#BED000" width="21.9" height="83.3"/>
	<rect x="98" y="97" fill="#0A4125" width="21.9" height="69.9"/>
	<path fill="#BED000" d="M185.1,45.1c0-18-14.6-32.6-32.6-32.6c-18,0-32.6,14.6-32.6,32.6c0,18,14.6,32.6,32.6,32.6
		C170.5,77.7,185.1,63.1,185.1,45.1z M140.4,68.7l-14.7-20.6h10.7V31.7c0-2.2,1.8-4,4-4s4,1.8,4,4v16.4h10.7L140.4,68.7z
		 M168.6,58.5c0,2.2-1.8,4-4,4s-4-1.8-4-4V42h-10.7l14.7-20.6L179.2,42h-10.7V58.5z"/>
	<path fill="#0B4125" d="M193.1,45.1c0-22.4-18.2-40.6-40.6-40.6c-13.5,0-25.5,6.7-32.9,16.9H70.3c-2.2,0-4,1.8-4,4v12.1H22
		c-2.2,0-4,1.8-4,4v139c0,2.2,1.8,4,4,4h114.3c2.2,0,4-1.8,4-4v-22.9h31.6c2.2,0,4-1.8,4-4V78.2C186.3,70.9,193.1,58.8,193.1,45.1z
		 M26,176.4v-131h85.9c0.1,14.9,8.3,27.9,20.4,34.8v96.1H26z M152.5,77.7c-18,0-32.6-14.6-32.6-32.6c0-18,14.6-32.6,32.6-32.6
		c18,0,32.6,14.6,32.6,32.6C185.1,63.1,170.5,77.7,152.5,77.7z M74.3,29.3h40.8c-1.1,2.6-1.9,5.3-2.5,8.1H74.3V29.3z M167.9,149.5
		h-27.6V83.8c3.9,1.2,7.9,1.9,12.2,1.9c5.5,0,10.7-1.1,15.4-3.1V149.5z"/>
</g>
<path fill="#0B4125" d="M144.4,48.2V31.7c0-2.2-1.8-4-4-4s-4,1.8-4,4v16.4h-10.7l14.7,20.6l14.7-20.6H144.4z"/>
<path fill="#0B4125" d="M164.6,21.4L149.9,42h10.7v16.4c0,2.2,1.8,4,4,4s4-1.8,4-4V42h10.7L164.6,21.4z"/>
<rect x="0" fill="none" width="200" height="200"/>
</svg>
