<?xml version="1.0" encoding="utf-8"?>
<!-- Generator: Adobe Illustrator 26.5.0, SVG Export Plug-In . SVG Version: 6.00 Build 0)  -->
<svg version="1.1" id="Ebene_1" xmlns="http://www.w3.org/2000/svg" xmlns:xlink="http://www.w3.org/1999/xlink" x="0px" y="0px"
	 viewBox="0 0 200 200" enable-background="new 0 0 200 200" xml:space="preserve">
<g>
	<path fill="#BED000" d="M164.7,39.5c0-11.6-9.5-21.1-21.1-21.1s-21.1,9.5-21.1,21.1s9.5,21.1,21.1,21.1S164.7,51.1,164.7,39.5z"/>
	<path fill="#0B4125" d="M143.7,10.4c-16,0-29.1,13-29.1,29.1s13,29.1,29.1,29.1s29.1-13,29.1-29.1S159.7,10.4,143.7,10.4z
		 M122.6,39.5c0-11.6,9.5-21.1,21.1-21.1s21.1,9.5,21.1,21.1s-9.5,21.1-21.1,21.1S122.6,51.1,122.6,39.5z"/>
</g>
<g>
	<path fill="#BED000" d="M170.3,72.5c-0.4,0.3-1,0.9-1.4,1.4c-3.5,3.6-9.3,9.5-25.3,9.5s-21.8-6-25.2-9.5c-0.5-0.5-1-1.1-1.4-1.4
		c-0.3,0.2-4.5,3.7-7.5,33.6c-0.4,4-0.7,7.9-1,11.6c1,4.5,1.9,9.8,2.6,15.9h68.7c-0.2-5.7-0.8-16.5-1.9-27.5
		C175,77,170.8,72.9,170.3,72.5z"/>
	<path fill="#0B4125" d="M185.8,104.7c-1-9.8-2.2-17.8-3.7-23.9c-2.1-9-4.7-13.8-8.3-15.5c-5.2-2.5-8.5,0.8-10.6,3
		c-2.9,3-7,7.1-19.5,7.1c-12.6,0-16.6-4.1-19.5-7.1c-2.2-2.2-5.4-5.5-10.6-3c-3.9,1.9-8.4,7.7-11.5,35.5c-1-1.2-2.1-2.1-3.3-2.7
		C93,95.3,89.4,99,87,101.4c-3.4,3.4-8,8.2-22.4,8.2c-14.4,0-19-4.7-22.4-8.2c-2.4-2.4-6-6.1-11.7-3.3c-4,1.9-6.8,7.3-9.2,17.4
		c-1.6,6.9-3,16-4.2,27.1c-1.9,18.8-2.4,37.1-2.4,37.3c0,1.1,0.4,2.3,1.2,3.1c0.8,0.8,1.9,1.3,3,1.3h91.4c1.1,0,2.2-0.5,3-1.3
		c0.8-0.8,1.2-1.9,1.2-3.1c0-0.2-0.5-18.5-2.4-37.3c0-0.3-0.1-0.6-0.1-0.9h71.9c1.1,0,2.1-0.4,2.9-1.2s1.2-1.8,1.1-2.9
		C187.9,137.4,187.5,121.2,185.8,104.7z M103.7,143.9c1.3,12.8,1.9,25.4,2.2,31.8H23.3c0.3-6.4,0.9-19,2.2-31.8
		c3.5-34.7,8.5-38.1,8.7-38.2c0.1,0,0.1-0.1,0.2-0.1c0.4,0.3,1.2,1.1,1.8,1.7c3.9,4,10.5,10.7,28.5,10.7c18,0,24.5-6.7,28.5-10.7
		c0.6-0.6,1.4-1.4,1.8-1.7c0,0,0.1,0,0.1,0.1C95.2,105.8,100.2,109.2,103.7,143.9z M111.1,133.7c-0.8-6.1-1.7-11.4-2.6-15.9
		c0.3-3.7,0.6-7.6,1-11.6c3-29.9,7.3-33.5,7.5-33.6c0.4,0.3,1,0.9,1.4,1.4c3.5,3.6,9.3,9.5,25.2,9.5s21.8-6,25.3-9.5
		c0.5-0.5,1-1.1,1.4-1.4c0.5,0.4,4.6,4.5,7.5,33.6c1.1,11.1,1.7,21.8,1.9,27.5H111.1z"/>
</g>
<g>
	<path fill="#0B4125" d="M64.6,36.1c-17.9,0-32.5,14.6-32.5,32.5S46.7,101,64.6,101s32.5-14.6,32.5-32.5S82.5,36.1,64.6,36.1z
		 M64.6,93c-13.5,0-24.5-11-24.5-24.5c0-13.5,11-24.5,24.5-24.5s24.5,11,24.5,24.5C89.1,82,78.1,93,64.6,93z"/>
</g>
<rect x="0" fill="none" width="200" height="200"/>
</svg>
