<?xml version="1.0" encoding="utf-8"?>
<!-- Generator: Adobe Illustrator 26.5.0, SVG Export Plug-In . SVG Version: 6.00 Build 0)  -->
<svg version="1.1" id="Ebene_1" xmlns="http://www.w3.org/2000/svg" xmlns:xlink="http://www.w3.org/1999/xlink" x="0px" y="0px"
	 viewBox="0 0 200 200" enable-background="new 0 0 200 200" xml:space="preserve">
<g>
	<path fill="none" d="M176.5,144.2l-19.5-27.9c-0.8-1.2-3.1-2.4-4.6-2.4h-30.7v53.5c0,0.2,0,0.4,0,0.6h6.5
		c1.8-7.7,8.6-13.4,16.8-13.4s15.1,5.7,16.8,13.4h15.8c0.5,0,1-0.4,1-1v-16C178.6,149,177.6,145.7,176.5,144.2L176.5,144.2z
		 M160.3,137.1H133c-1.6,0-3-1.3-3-3v-12c0-1.6,1.3-3,3-3h15.7c1.6,0,3.7,1.1,4.6,2.5l8.4,12.9C162.6,136,161.9,137.1,160.3,137.1z"
		/>
	<path fill="#0A4125" d="M183,139.6l-19.5-27.9c-2.3-3.3-7.1-5.8-11.1-5.8h-30.7v-8.7c0-4.7-4-8.6-9-8.6h-87c-5,0-9,3.9-9,8.6v70.2
		c0,4.7,4,8.6,9,8.6h10c1.8,7.6,8.7,13.3,16.8,13.3s15-5.7,16.8-13.3h28.1c0,0,0,0,0.1,0h30.9c1.9,7.5,8.7,13.1,16.8,13.1
		s14.9-5.6,16.8-13.1h15.9c5,0,9-4,9-9v-16C186.6,147.4,185.1,142.5,183,139.6z M52.4,181.2c-5.1,0-9.3-4.2-9.3-9.3s4.2-9.3,9.3-9.3
		s9.3,4.2,9.3,9.3S57.5,181.2,52.4,181.2z M113.6,167.4c0,0.2-0.4,0.6-1,0.6H69.2c-1.8-7.6-8.7-13.3-16.8-13.3s-15,5.7-16.8,13.3
		h-10c-0.6,0-1-0.4-1-0.6V97.2c0-0.2,0.4-0.6,1-0.6h87c0.6,0,1,0.4,1,0.6V167.4z M145,181.1c-5.1,0-9.3-4.2-9.3-9.3s4.2-9.3,9.3-9.3
		s9.3,4.2,9.3,9.3S150.1,181.1,145,181.1z M178.6,167c0,0.5-0.4,1-1,1h-15.8c-1.8-7.7-8.6-13.4-16.8-13.4s-15.1,5.7-16.8,13.4h-6.5
		c0-0.2,0-0.4,0-0.6v-53.5h30.7c1.4,0,3.8,1.2,4.6,2.4l19.5,27.9v0c1.1,1.6,2.1,4.9,2.1,6.8V167z"/>
	<path fill="#0A4125" d="M153.3,121.7c-0.9-1.4-2.9-2.5-4.6-2.5H133c-1.6,0-3,1.3-3,3v12c0,1.6,1.3,3,3,3h27.3
		c1.6,0,2.3-1.1,1.4-2.5L153.3,121.7z"/>
</g>
<g>
	<path fill="#BED000" d="M172.3,21.5H96.1c-2.3,0-4.2,1.9-4.2,4.2v26.2c3.2,2.1,5.2,5.1,5.2,8.5s-2,6.4-5.2,8.5v3.2
		c0,2.3,1.9,4.2,4.2,4.2h76.2c2.3,0,4.2-1.9,4.2-4.2V25.7C176.5,23.4,174.6,21.5,172.3,21.5z M140.3,42.8c1.3,0,2.3,1,2.3,2.1
		c0,1.2-1,2.1-2.3,2.1h-16.1c0,0.5-0.1,0.9-0.1,1.4c0,0.7,0,1.4,0.1,2.1h13.6c1.3,0,2.3,1,2.3,2.1c0,1.2-1,2.1-2.3,2.1h-12.7
		c1.9,5.5,6.4,8.1,10.8,8.1c4.4,0,6.5-2,6.5-2c1.5-1.6,4-1.8,5.7-0.4c1.7,1.4,1.9,3.8,0.4,5.3c-0.4,0.5-4.5,4.6-12.7,4.6
		c-8.3,0-16.7-5.4-19.2-15.7h-3.6c-1.3,0-2.3-1-2.3-2.1c0-1.2,1-2.1,2.3-2.1h3c0-0.7-0.1-1.4-0.1-2.1c0-0.5,0-1,0-1.4h-2.9
		c-1.3,0-2.3-1-2.3-2.1c0-1.2,1-2.1,2.3-2.1h3.5c2.3-10,10.4-15.4,18.1-15.4c8.2,0,13.4,4.8,13.6,5c1.6,1.5,1.6,3.9,0,5.4
		c-1.6,1.5-4.1,1.5-5.7,0c-0.1-0.1-3.3-2.8-7.9-2.8c-3.2,0-7.8,2.2-9.8,7.8H140.3z"/>
	<path fill="#0B4125" d="M172.3,13.5H96.1c-6.7,0-12.2,5.5-12.2,12.2V49c-1.2-0.2-2.5-0.3-3.8-0.3c-9.6,0-17.1,5.2-17.1,11.7
		S70.4,72.2,80,72.2c1.3,0,2.6-0.1,3.8-0.3v0.3c0,6.7,5.5,12.2,12.2,12.2h76.2c6.7,0,12.2-5.5,12.2-12.2V25.7
		C184.5,19,179,13.5,172.3,13.5z M176.5,72.2c0,2.3-1.9,4.2-4.2,4.2H96.1c-2.3,0-4.2-1.9-4.2-4.2V69c3.2-2.1,5.2-5.1,5.2-8.5
		s-2-6.4-5.2-8.5V25.7c0-2.3,1.9-4.2,4.2-4.2h76.2c2.3,0,4.2,1.9,4.2,4.2V72.2z M70.9,60.5c0-1.3,3.5-3.7,9.1-3.7s9.1,2.5,9.1,3.7
		s-3.5,3.7-9.1,3.7S70.9,61.8,70.9,60.5z"/>
	<path fill="#BED000" d="M134.7,35c4.7,0,7.8,2.7,7.9,2.8c1.6,1.5,4.1,1.4,5.7,0c1.6-1.5,1.6-3.9,0-5.4c-0.2-0.2-5.5-5-13.6-5
		c-7.7,0-15.9,5.4-18.1,15.4h-3.5c-1.3,0-2.3,1-2.3,2.1c0,1.2,1,2.1,2.3,2.1h2.9c0,0.5,0,0.9,0,1.4c0,0.7,0,1.4,0.1,2.1h-3
		c-1.3,0-2.3,1-2.3,2.1c0,1.2,1,2.1,2.3,2.1h3.6c2.5,10.3,10.9,15.7,19.2,15.7c8.2,0,12.2-4.2,12.7-4.6c1.5-1.6,1.3-4-0.4-5.3
		c-1.7-1.4-4.3-1.2-5.7,0.4c0,0-2.1,2-6.5,2c-4.4,0-8.9-2.5-10.8-8.1h12.7c1.3,0,2.3-1,2.3-2.1c0-1.2-1-2.1-2.3-2.1h-13.6
		c-0.1-0.7-0.1-1.4-0.1-2.1c0-0.5,0-1,0.1-1.4h16.1c1.3,0,2.3-1,2.3-2.1c0-1.2-1-2.1-2.3-2.1H125C126.9,37.2,131.5,35,134.7,35z"/>
	<path fill="#0A4125" d="M134.7,35c4.7,0,7.8,2.7,7.9,2.8c1.6,1.5,4.1,1.4,5.7,0c1.6-1.5,1.6-3.9,0-5.4c-0.2-0.2-5.5-5-13.6-5
		c-7.7,0-15.9,5.4-18.1,15.4h-3.5c-1.3,0-2.3,1-2.3,2.1c0,1.2,1,2.1,2.3,2.1h2.9c0,0.5,0,0.9,0,1.4c0,0.7,0,1.4,0.1,2.1h-3
		c-1.3,0-2.3,1-2.3,2.1c0,1.2,1,2.1,2.3,2.1h3.6c2.5,10.3,10.9,15.7,19.2,15.7c8.2,0,12.2-4.2,12.7-4.6c1.5-1.6,1.3-4-0.4-5.3
		c-1.7-1.4-4.3-1.2-5.7,0.4c0,0-2.1,2-6.5,2c-4.4,0-8.9-2.5-10.8-8.1h12.7c1.3,0,2.3-1,2.3-2.1c0-1.2-1-2.1-2.3-2.1h-13.6
		c-0.1-0.7-0.1-1.4-0.1-2.1c0-0.5,0-1,0.1-1.4h16.1c1.3,0,2.3-1,2.3-2.1c0-1.2-1-2.1-2.3-2.1H125C126.9,37.2,131.5,35,134.7,35z"/>
	<path fill="#0B4125" d="M46.3,38.2c-9.1,0-16,4.8-16,11.1c0,3.7,2.4,6.9,6.1,8.9c-0.9-0.1-1.8-0.1-2.7-0.1
		c-10.9,0-19.5,5.8-19.5,13.2c0,7.4,8.6,13.2,19.5,13.2c10.9,0,19.5-5.8,19.5-13.2c0-4.6-3.3-8.5-8.3-10.8c0.5,0,0.9,0,1.4,0
		c9.1,0,16-4.8,16-11.1C62.3,43,55.5,38.2,46.3,38.2z M33.8,76.4c-6.9,0-11.5-3.1-11.5-5.2s4.6-5.2,11.5-5.2s11.5,3.1,11.5,5.2
		S40.7,76.4,33.8,76.4z M46.3,52.4c-5.3,0-8-2.3-8-3.1s2.8-3.1,8-3.1s8,2.3,8,3.1S51.6,52.4,46.3,52.4z"/>
</g>
<rect x="0" fill="none" width="200" height="200"/>
</svg>
