<?xml version="1.0" encoding="utf-8"?>
<!-- Generator: Adobe Illustrator 26.5.0, SVG Export Plug-In . SVG Version: 6.00 Build 0)  -->
<svg version="1.1" id="Ebene_1" xmlns="http://www.w3.org/2000/svg" xmlns:xlink="http://www.w3.org/1999/xlink" x="0px" y="0px"
	 viewBox="0 0 200 200" enable-background="new 0 0 200 200" xml:space="preserve">
<g>
	<path fill="none" d="M115.1,29.3H74.3v8.1h38.3C113.2,34.6,114,31.9,115.1,29.3z"/>
	<path fill="none" d="M140.3,83.8v65.7h27.6V82.7c-4.8,2-10,3.1-15.4,3.1C148.3,85.7,144.2,85,140.3,83.8z"/>
	<path fill="#0B4125" d="M77.5,148c2.2,0,4-1.8,4-4s-1.8-4-4-4H43.9c-2.2,0-4,1.8-4,4s1.8,4,4,4H77.5z"/>
	<path fill="#0B4125" d="M43.9,123.5c-2.2,0-4,1.8-4,4s1.8,4,4,4h42c2.2,0,4-1.8,4-4s-1.8-4-4-4H43.9z"/>
	<path fill="#0B4125" d="M43.9,115h38.6c2.2,0,4-1.8,4-4s-1.8-4-4-4H43.9c-2.2,0-4,1.8-4,4S41.7,115,43.9,115z"/>
	<path fill="#0B4125" d="M90,156.6H43.9c-2.2,0-4,1.8-4,4s1.8,4,4,4H90c2.2,0,4-1.8,4-4S92.2,156.6,90,156.6z"/>
	<path fill="#BED000" d="M107.6,148h7.3c2.2,0,4-1.8,4-4s-1.8-4-4-4h-7.3c-2.2,0-4,1.8-4,4S105.4,148,107.6,148z"/>
	<path fill="#BED000" d="M107.6,131.5h7.3c2.2,0,4-1.8,4-4s-1.8-4-4-4h-7.3c-2.2,0-4,1.8-4,4S105.4,131.5,107.6,131.5z"/>
	<path fill="#BED000" d="M107.6,115h7.3c2.2,0,4-1.8,4-4s-1.8-4-4-4h-7.3c-2.2,0-4,1.8-4,4S105.4,115,107.6,115z"/>
	<path fill="#0B4125" d="M39.9,94.4c0,2.2,1.8,4,4,4h38.6c2.2,0,4-1.8,4-4s-1.8-4-4-4H43.9C41.7,90.4,39.9,92.2,39.9,94.4z"/>
	<path fill="#BED000" d="M107.6,98.4h7.3c2.2,0,4-1.8,4-4s-1.8-4-4-4h-7.3c-2.2,0-4,1.8-4,4S105.4,98.4,107.6,98.4z"/>
	<path fill="#BED000" d="M114.9,156.6h-7.3c-2.2,0-4,1.8-4,4s1.8,4,4,4h7.3c2.2,0,4-1.8,4-4S117.1,156.6,114.9,156.6z"/>
	<path fill="#BED000" d="M185.1,45.1c0-18-14.6-32.6-32.6-32.6c-18,0-32.6,14.6-32.6,32.6c0,18,14.6,32.6,32.6,32.6
		C170.5,77.7,185.1,63.1,185.1,45.1z"/>
	<path fill="#0B4125" d="M193.1,45.1c0-22.4-18.2-40.6-40.6-40.6c-13.5,0-25.5,6.7-32.9,16.9H70.3c-2.2,0-4,1.8-4,4v12.1H22
		c-2.2,0-4,1.8-4,4v139c0,2.2,1.8,4,4,4h114.3c2.2,0,4-1.8,4-4v-22.9h31.6c2.2,0,4-1.8,4-4V78.2C186.3,70.9,193.1,58.8,193.1,45.1z
		 M26,176.4v-131h85.9c0.1,14.9,8.3,27.9,20.4,34.8v96.1H26z M152.5,77.7c-18,0-32.6-14.6-32.6-32.6c0-18,14.6-32.6,32.6-32.6
		c18,0,32.6,14.6,32.6,32.6C185.1,63.1,170.5,77.7,152.5,77.7z M74.3,29.3h40.8c-1.1,2.6-1.9,5.3-2.5,8.1H74.3V29.3z M167.9,149.5
		h-27.6V83.8c3.9,1.2,7.9,1.9,12.2,1.9c5.5,0,10.7-1.1,15.4-3.1V149.5z"/>
	<path fill="#FFFFFF" d="M58.4,80.1c1.1-1.2,0.9-3-0.3-4c-1.3-1-3.2-0.9-4.2,0.3c0,0-1.6,1.5-4.8,1.5c-3.3,0-6.6-1.9-8-6h9.4
		c0.9,0,1.7-0.7,1.7-1.6c0-0.9-0.8-1.6-1.7-1.6H40.3c0-0.5-0.1-1-0.1-1.6c0-0.4,0-0.7,0-1.1h12c0.9,0,1.7-0.7,1.7-1.6
		c0-0.9-0.8-1.6-1.7-1.6H40.9c1.4-4.2,4.9-5.8,7.3-5.8c3.5,0,5.8,2,5.9,2.1c1.2,1.1,3.1,1.1,4.2,0c1.2-1.1,1.2-2.9,0-4
		c-0.2-0.2-4.1-3.7-10.1-3.7c-5.8,0-11.8,4-13.5,11.4H32c-0.9,0-1.7,0.7-1.7,1.6c0,0.9,0.8,1.6,1.7,1.6h2.2c0,0.3,0,0.7,0,1.1
		c0,0.5,0,1,0.1,1.6H32c-0.9,0-1.7,0.7-1.7,1.6c0,0.9,0.8,1.6,1.7,1.6h2.7c1.8,7.7,8.1,11.7,14.3,11.7
		C55.1,83.6,58.1,80.5,58.4,80.1z"/>
	<path fill="#0A4125" d="M58.4,80.1c1.1-1.2,0.9-3-0.3-4c-1.3-1-3.2-0.9-4.2,0.3c0,0-1.6,1.5-4.8,1.5c-3.3,0-6.6-1.9-8-6h9.4
		c0.9,0,1.7-0.7,1.7-1.6c0-0.9-0.8-1.6-1.7-1.6H40.3c0-0.5-0.1-1-0.1-1.6c0-0.4,0-0.7,0-1.1h12c0.9,0,1.7-0.7,1.7-1.6
		c0-0.9-0.8-1.6-1.7-1.6H40.9c1.4-4.2,4.9-5.8,7.3-5.8c3.5,0,5.8,2,5.9,2.1c1.2,1.1,3.1,1.1,4.2,0c1.2-1.1,1.2-2.9,0-4
		c-0.2-0.2-4.1-3.7-10.1-3.7c-5.8,0-11.8,4-13.5,11.4H32c-0.9,0-1.7,0.7-1.7,1.6c0,0.9,0.8,1.6,1.7,1.6h2.2c0,0.3,0,0.7,0,1.1
		c0,0.5,0,1,0.1,1.6H32c-0.9,0-1.7,0.7-1.7,1.6c0,0.9,0.8,1.6,1.7,1.6h2.7c1.8,7.7,8.1,11.7,14.3,11.7
		C55.1,83.6,58.1,80.5,58.4,80.1z"/>
</g>
<path fill="#0B4125" d="M144.4,48.2V31.7c0-2.2-1.8-4-4-4s-4,1.8-4,4v16.4h-10.7l14.7,20.6l14.7-20.6H144.4z"/>
<path fill="#0B4125" d="M164.6,21.4L149.9,42h10.7v16.4c0,2.2,1.8,4,4,4s4-1.8,4-4V42h10.7L164.6,21.4z"/>
<rect fill="none" width="200" height="200"/>
</svg>
