<?xml version="1.0" encoding="utf-8"?>
<!-- Generator: Adobe Illustrator 26.5.0, SVG Export Plug-In . SVG Version: 6.00 Build 0)  -->
<svg version="1.1" id="Ebene_1" xmlns="http://www.w3.org/2000/svg" xmlns:xlink="http://www.w3.org/1999/xlink" x="0px" y="0px"
	 viewBox="0 0 200 200" enable-background="new 0 0 200 200" xml:space="preserve">
<polygon fill="#0A4125" points="174,39.7 168.7,30.6 159.3,34.3 157.8,24.3 147.3,24.3 145.7,34.3 136.3,30.6 131,39.7 139,46 
	131,52.4 136.3,61.5 145.7,57.8 147.3,67.8 157.8,67.8 159.3,57.8 168.7,61.5 174,52.4 166.1,46 "/>
<rect x="0" fill="none" width="200" height="200"/>
<g>
	<path fill="none" d="M129.2,79.3H48.7c-2.9,0-5.3,2.4-5.3,5.3v89c0,2.9,2.4,5.3,5.3,5.3h102.7c2.9,0,5.3-2.4,5.3-5.3V86.5
		c-1.4,0.1-2.8,0.2-4.2,0.2C143.8,86.7,135.8,83.9,129.2,79.3z M100,88c10.4,0,18.9,8.5,18.9,18.9c0,10.4-8.5,18.9-18.9,18.9
		c-10.4,0-18.9-8.5-18.9-18.9C81.1,96.5,89.6,88,100,88z M129.7,170.2c-0.7,0.7-1.6,1.1-2.5,1.1H72.8c-0.9,0-1.9-0.4-2.5-1.1
		c-0.7-0.7-1-1.6-1-2.5c0-0.4,0.3-10.1,1.5-20.3c2.2-19.7,5.6-23.8,8.6-25.1c4.1-1.8,6.7,1.2,8.1,2.8c2,2.3,4.4,5.1,12.6,5.1
		s10.6-2.9,12.6-5.1c1.4-1.6,3.9-4.6,8.1-2.8c3,1.3,6.4,5.4,8.6,25.1c1.1,10.2,1.4,19.9,1.5,20.3
		C130.7,168.6,130.4,169.5,129.7,170.2z"/>
	<path fill="none" d="M100,36.2c-9.6,0-16.3,3-20.5,9.1c-4,5.9-4.9,13.7-4.9,19.1v7h46.1c-5.6-7-8.9-15.8-8.9-25.3
		c0-2.6,0.2-5,0.7-7.5C109.1,37,105,36.2,100,36.2z"/>
	<path fill="none" d="M118.1,129.2c-0.1,0.1-0.2,0.2-0.3,0.3c-2.3,2.6-6.5,7.6-17.9,7.6s-15.6-4.9-17.9-7.6
		c-0.1-0.1-0.2-0.2-0.3-0.3c-0.9,1.5-2.8,6.2-4.2,19.8c-0.6,5.9-1,11.7-1.2,15.2h47.1c-0.2-3.6-0.5-9.3-1.2-15.2
		C120.9,135.5,119,130.8,118.1,129.2z"/>
	<path fill="none" d="M65.9,64.4c0-23.5,12.4-36.9,34.1-36.9c5.7,0,10.7,0.9,15.1,2.7c1.3-3.1,3.1-6.1,5.1-8.8
		c-5.8-2.4-12.5-3.6-20.2-3.6c-15.1,0-26.6,4.6-34.1,13.8c-6.5,7.9-9.9,19-9.9,32.3v7.5h9.9V64.4z"/>
	<path fill="none" d="M100,118.8c6.6,0,11.9-5.4,11.9-11.9c0-6.6-5.4-11.9-11.9-11.9c-6.6,0-11.9,5.4-11.9,11.9
		C88.1,113.5,93.4,118.8,100,118.8z"/>
	<path fill="#0B4125" d="M120.6,122.2c-4.1-1.8-6.7,1.2-8.1,2.8c-2,2.3-4.4,5.1-12.6,5.1s-10.6-2.9-12.6-5.1
		c-1.4-1.6-3.9-4.6-8.1-2.8c-3,1.3-6.4,5.4-8.6,25.1c-1.1,10.2-1.4,19.9-1.5,20.3c0,0.9,0.3,1.9,1,2.5c0.7,0.7,1.6,1.1,2.5,1.1h54.4
		c0.9,0,1.9-0.4,2.5-1.1s1-1.6,1-2.5c0-0.4-0.3-10.1-1.5-20.3C127,127.6,123.6,123.5,120.6,122.2z M76.5,164.2
		c0.2-3.6,0.5-9.3,1.2-15.2c1.5-13.5,3.3-18.2,4.2-19.8c0.1,0.1,0.2,0.2,0.3,0.3c2.3,2.6,6.5,7.6,17.9,7.6s15.6-4.9,17.9-7.6
		c0.1-0.1,0.2-0.2,0.3-0.3c0.9,1.5,2.8,6.2,4.2,19.8c0.6,5.9,1,11.7,1.2,15.2H76.5z"/>
	<path fill="#0B4125" d="M100,125.8c10.4,0,18.9-8.5,18.9-18.9c0-10.4-8.5-18.9-18.9-18.9c-10.4,0-18.9,8.5-18.9,18.9
		C81.1,117.3,89.6,125.8,100,125.8z M100,95c6.6,0,11.9,5.4,11.9,11.9c0,6.6-5.4,11.9-11.9,11.9c-6.6,0-11.9-5.4-11.9-11.9
		C88.1,100.3,93.4,95,100,95z"/>
	<path fill="#BED000" d="M152.5,13.4c-18,0-32.6,14.6-32.6,32.6c0,18,14.6,32.6,32.6,32.6c18,0,32.6-14.6,32.6-32.6
		C185.1,28,170.5,13.4,152.5,13.4z M174,52.4l-5.3,9.1l-9.5-3.7l-1.5,10h-10.5l-1.5-10l-9.5,3.7l-5.3-9.1L139,46l-7.9-6.3l5.3-9.1
		l9.5,3.7l1.5-10h10.5l1.5,10l9.5-3.7l5.3,9.1l-7.9,6.3L174,52.4z"/>
	<path fill="#0B4125" d="M193.1,46c0-22.4-18.2-40.6-40.6-40.6c-9.8,0-18.8,3.5-25.8,9.3c-7.5-3.7-16.4-5.6-26.7-5.6
		c-17.9,0-31.6,5.7-40.8,17c-7.7,9.4-11.8,22.5-11.8,37.8v7.6c-6.7,0.7-11.9,6.3-11.9,13.1v89c0,7.3,5.9,13.2,13.2,13.2h102.7
		c7.3,0,13.2-5.9,13.2-13.2V84.8C181.1,79.7,193.1,64.2,193.1,46z M56.1,63.9c0-13.2,3.4-24.4,9.9-32.3c7.5-9.1,19-13.8,34.1-13.8
		c7.7,0,14.5,1.2,20.2,3.6c-2.1,2.7-3.8,5.6-5.1,8.8c-4.4-1.8-9.4-2.7-15.1-2.7c-21.7,0-34.1,13.5-34.1,36.9v7h-9.9V63.9z
		 M120.8,71.4H74.7v-7c0-5.5,0.8-13.2,4.9-19.1c4.2-6.1,10.9-9.1,20.5-9.1c5,0,9.1,0.8,12.6,2.4c-0.5,2.4-0.7,4.9-0.7,7.5
		C111.9,55.6,115.2,64.4,120.8,71.4z M156.7,173.6c0,2.9-2.4,5.3-5.3,5.3H48.7c-2.9,0-5.3-2.4-5.3-5.3v-89c0-2.9,2.4-5.3,5.3-5.3
		h80.5c6.6,4.7,14.7,7.4,23.3,7.4c1.4,0,2.8-0.1,4.2-0.2V173.6z M152.5,78.7c-18,0-32.6-14.6-32.6-32.6c0-18,14.6-32.6,32.6-32.6
		c18,0,32.6,14.6,32.6,32.6C185.1,64.1,170.5,78.7,152.5,78.7z"/>
	<path fill="#BED000" d="M152.5,39.1c-3.8,0-6.9,3.1-6.9,6.9s3.1,6.9,6.9,6.9s6.9-3.1,6.9-6.9S156.3,39.1,152.5,39.1z"/>
</g>
</svg>
