<?xml version="1.0" encoding="utf-8"?>
<!-- Generator: Adobe Illustrator 26.5.0, SVG Export Plug-In . SVG Version: 6.00 Build 0)  -->
<svg version="1.1" id="Ebene_1" xmlns="http://www.w3.org/2000/svg" xmlns:xlink="http://www.w3.org/1999/xlink" x="0px" y="0px"
	 viewBox="0 0 200 200" enable-background="new 0 0 200 200" xml:space="preserve">
<g>
	<rect x="83" y="128.7" fill="none" width="33.9" height="45.2"/>
	<path fill="none" d="M106.5,46c0-2.5,0.2-4.9,0.7-7.3l-7.2-6.3L33,91.3v82.5H75v-49.2c0-2.2,1.8-4,4-4H121c2.2,0,4,1.8,4,4v49.2
		H167V91.3l-7.5-6.6c-3.9,1.2-8,1.9-12.4,1.9C124.8,86.7,106.5,68.4,106.5,46z"/>
	<path fill="#BED000" d="M147.2,13.4c-18,0-32.6,14.6-32.6,32.6s14.6,32.6,32.6,32.6c18,0,32.6-14.6,32.6-32.6
		S165.2,13.4,147.2,13.4z M168.6,52.4l-5.3,9.1l-9.5-3.7l-1.5,10h-10.5l-1.5-10l-9.5,3.7l-5.3-9.1l7.9-6.3l-7.9-6.3l5.3-9.1l9.5,3.7
		l1.5-10h10.5l1.5,10l9.5-3.7l5.3,9.1l-7.9,6.3L168.6,52.4z"/>
	<path fill="#BED000" d="M147.2,39.1c-3.8,0-6.9,3.1-6.9,6.9s3.1,6.9,6.9,6.9s6.9-3.1,6.9-6.9S151,39.1,147.2,39.1z"/>
	<path fill="#0B4125" d="M187.8,46c0-22.4-18.2-40.6-40.6-40.6c-16.8,0-31.3,10.3-37.4,24.9l-7.1-6.2c-1.5-1.3-3.8-1.3-5.3,0
		l-71,62.5c-0.9,0.8-1.4,1.9-1.4,3v88.3c0,2.2,1.8,4,4,4H79H121H171c2.2,0,4-1.8,4-4V89.5c0-1.1-0.5-2.2-1.4-3l-6.1-5.4
		C179.6,74.1,187.8,61,187.8,46z M117,173.8H83v-45.2H117V173.8z M167,91.3v82.5H125v-49.2c0-2.2-1.8-4-4-4H79c-2.2,0-4,1.8-4,4
		v49.2H33V91.3l67-58.9l7.2,6.3c-0.4,2.4-0.7,4.8-0.7,7.3c0,22.4,18.2,40.6,40.6,40.6c4.3,0,8.5-0.7,12.4-1.9L167,91.3z M147.2,78.7
		c-18,0-32.6-14.6-32.6-32.6s14.6-32.6,32.6-32.6c18,0,32.6,14.6,32.6,32.6S165.2,78.7,147.2,78.7z"/>
	<path fill="#0A4125" d="M163.4,30.6l-9.5,3.7l-1.5-10h-10.5l-1.5,10l-9.5-3.7l-5.3,9.1l7.9,6.3l-7.9,6.3l5.3,9.1l9.5-3.7l1.5,10
		h10.5l1.5-10l9.5,3.7l5.3-9.1l-7.9-6.3l7.9-6.3L163.4,30.6z M147.2,52.9c-3.8,0-6.9-3.1-6.9-6.9s3.1-6.9,6.9-6.9s6.9,3.1,6.9,6.9
		S151,52.9,147.2,52.9z"/>
</g>
<rect x="0" fill="none" width="200" height="200"/>
</svg>
